<svg fill="none" height="120" viewBox="0 0 240 120" width="240" xmlns="http://www.w3.org/2000/svg"><g opacity=".2"><g fill="#21b5c2"><rect height="10" rx="5" width="10" x="35" y="80"/><rect height="10" rx="5" width="10" x="35" y="5"/><rect height="10" rx="5" width="10" x="98.334" y="80"/><rect height="10" rx="5" width="10" x="98.334" y="5"/></g><rect fill="#5436da" height="10" rx="5" width="10" x="161.668" y="80"/><rect fill="#5436da" height="10" rx="5" width="10" x="161.668" y="5"/><rect fill="#5436da" height="10" rx="5" width="10" x="225.002" y="80"/><rect fill="#5436da" height="10" rx="5" width="10" x="225.002" y="5"/></g><g fill="#191927" fill-opacity=".03" stroke="#c5c5d2"><path d="m40.001 10h190v75h-190z"/><path d="m10 35h190v75h-190z"/><path d="m200.001 35 30-25v75.0244l-30 24.9756z" stroke-linejoin="bevel"/><path d="m10 35 30-25v75.0244l-30 24.9756z" stroke-linejoin="bevel"/></g><rect fill="#21b5c2" height="10" rx="5" width="10" x="5" y="105"/><rect fill="#21b5c2" height="10" rx="5" width="10" x="5" y="30"/><rect fill="#21b5c2" height="10" rx="5" width="10" x="68.334" y="105"/><rect fill="#21b5c2" height="10" rx="5" width="10" x="68.334" y="30"/><rect fill="#5436da" height="10" rx="5" width="10" x="131.668" y="105"/><rect fill="#5436da" height="10" rx="5" width="10" x="131.668" y="30"/><rect fill="#5436da" height="10" rx="5" width="10" x="195.002" y="105"/><rect fill="#5436da" height="10" rx="5" width="10" x="195.002" y="30"/></svg>